<?xml version="1.0" encoding="UTF-8"?>
<svg id="WHITE" xmlns="http://www.w3.org/2000/svg" version="1.1" xmlns:xlink="http://www.w3.org/1999/xlink" viewBox="0 0 2000 857.4">
  <!-- Generator: Adobe Illustrator 29.0.1, SVG Export Plug-In . SVG Version: 2.1.0 Build 192)  -->
  <defs>
    <style>
      .st0 {
        fill: url(#linear-gradient2);
      }

      .st1 {
        fill: #050d16;
      }

      .st2 {
        fill: url(#linear-gradient10);
      }

      .st3 {
        fill: url(#linear-gradient9);
      }

      .st4 {
        fill: url(#linear-gradient18);
      }

      .st5 {
        fill: url(#linear-gradient8);
      }

      .st6 {
        fill: url(#linear-gradient11);
      }

      .st7 {
        fill: url(#linear-gradient16);
      }

      .st8 {
        fill: url(#linear-gradient12);
      }

      .st9 {
        fill: url(#linear-gradient7);
      }

      .st10 {
        fill: url(#linear-gradient1);
      }

      .st10, .st11 {
        fill-rule: evenodd;
      }

      .st12 {
        fill: url(#linear-gradient4);
      }

      .st13 {
        fill: url(#linear-gradient14);
      }

      .st14 {
        fill: url(#linear-gradient5);
      }

      .st15 {
        fill: url(#linear-gradient3);
      }

      .st11, .st16 {
        fill: #808184;
      }

      .st17 {
        fill: url(#linear-gradient15);
      }

      .st18 {
        fill: url(#linear-gradient17);
      }

      .st19 {
        fill: url(#linear-gradient6);
      }

      .st20 {
        fill: url(#linear-gradient13);
      }

      .st21 {
        fill: url(#linear-gradient);
      }
    </style>
    <linearGradient id="linear-gradient" x1="417.7" y1="278.8" x2="625.7" y2="520.5" gradientTransform="translate(0 854.7) scale(1 -1)" gradientUnits="userSpaceOnUse">
      <stop offset="0" stop-color="#5354e4"/>
      <stop offset=".8" stop-color="#0abef2"/>
    </linearGradient>
    <linearGradient id="linear-gradient1" x1="334.5" y1="496.4" x2="516.2" y2="707.5" gradientTransform="translate(0 854.7) scale(1 -1)" gradientUnits="userSpaceOnUse">
      <stop offset="0" stop-color="#5354e4"/>
      <stop offset=".8" stop-color="#0abef2"/>
    </linearGradient>
    <linearGradient id="linear-gradient2" x1="667.9" y1="126" x2="1120.3" y2="651.7" gradientTransform="translate(0 854.7) scale(1 -1)" gradientUnits="userSpaceOnUse">
      <stop offset="0" stop-color="#5354e4"/>
      <stop offset=".8" stop-color="#0abef2"/>
    </linearGradient>
    <linearGradient id="linear-gradient3" x1="698.8" y1="99.4" x2="1151.3" y2="625.1" gradientTransform="translate(0 854.7) scale(1 -1)" gradientUnits="userSpaceOnUse">
      <stop offset="0" stop-color="#5354e4"/>
      <stop offset=".8" stop-color="#0abef2"/>
    </linearGradient>
    <linearGradient id="linear-gradient4" x1="726.4" y1="75.7" x2="1178.8" y2="601.4" gradientTransform="translate(0 854.7) scale(1 -1)" gradientUnits="userSpaceOnUse">
      <stop offset="0" stop-color="#5354e4"/>
      <stop offset=".8" stop-color="#0abef2"/>
    </linearGradient>
    <linearGradient id="linear-gradient5" x1="777.1" y1="32" x2="1229.6" y2="557.7" gradientTransform="translate(0 854.7) scale(1 -1)" gradientUnits="userSpaceOnUse">
      <stop offset="0" stop-color="#5354e4"/>
      <stop offset=".8" stop-color="#0abef2"/>
    </linearGradient>
    <linearGradient id="linear-gradient6" x1="814.9" y1="-.6" x2="1267.4" y2="525.2" gradientTransform="translate(0 854.7) scale(1 -1)" gradientUnits="userSpaceOnUse">
      <stop offset="0" stop-color="#5354e4"/>
      <stop offset=".8" stop-color="#0abef2"/>
    </linearGradient>
    <linearGradient id="linear-gradient7" x1="854.8" y1="-34.9" x2="1307.3" y2="490.9" gradientTransform="translate(0 854.7) scale(1 -1)" gradientUnits="userSpaceOnUse">
      <stop offset="0" stop-color="#5354e4"/>
      <stop offset=".8" stop-color="#0abef2"/>
    </linearGradient>
    <linearGradient id="linear-gradient8" x1="880.9" y1="-57.3" x2="1333.4" y2="468.4" gradientTransform="translate(0 854.7) scale(1 -1)" gradientUnits="userSpaceOnUse">
      <stop offset="0" stop-color="#5354e4"/>
      <stop offset=".8" stop-color="#0abef2"/>
    </linearGradient>
    <linearGradient id="linear-gradient9" x1="908.7" y1="-81.3" x2="1361.2" y2="444.4" gradientTransform="translate(0 854.7) scale(1 -1)" gradientUnits="userSpaceOnUse">
      <stop offset="0" stop-color="#5354e4"/>
      <stop offset=".8" stop-color="#0abef2"/>
    </linearGradient>
    <linearGradient id="linear-gradient10" x1="958.3" y1="-123.9" x2="1410.7" y2="401.8" gradientTransform="translate(0 854.7) scale(1 -1)" gradientUnits="userSpaceOnUse">
      <stop offset="0" stop-color="#5354e4"/>
      <stop offset=".8" stop-color="#0abef2"/>
    </linearGradient>
    <linearGradient id="linear-gradient11" x1="989.8" y1="-151.1" x2="1442.3" y2="374.7" gradientTransform="translate(0 854.7) scale(1 -1)" gradientUnits="userSpaceOnUse">
      <stop offset="0" stop-color="#5354e4"/>
      <stop offset=".8" stop-color="#0abef2"/>
    </linearGradient>
    <linearGradient id="linear-gradient12" x1="1014.4" y1="-172.3" x2="1466.9" y2="353.5" gradientTransform="translate(0 854.7) scale(1 -1)" gradientUnits="userSpaceOnUse">
      <stop offset="0" stop-color="#5354e4"/>
      <stop offset=".8" stop-color="#0abef2"/>
    </linearGradient>
    <linearGradient id="linear-gradient13" x1="1045.2" y1="-198.7" x2="1497.7" y2="327" gradientTransform="translate(0 854.7) scale(1 -1)" gradientUnits="userSpaceOnUse">
      <stop offset="0" stop-color="#5354e4"/>
      <stop offset=".8" stop-color="#0abef2"/>
    </linearGradient>
    <linearGradient id="linear-gradient14" x1="1074.5" y1="-223.9" x2="1526.9" y2="301.8" gradientTransform="translate(0 854.7) scale(1 -1)" gradientUnits="userSpaceOnUse">
      <stop offset="0" stop-color="#5354e4"/>
      <stop offset=".8" stop-color="#0abef2"/>
    </linearGradient>
    <linearGradient id="linear-gradient15" x1="1095.8" y1="-242.3" x2="1548.3" y2="283.4" gradientTransform="translate(0 854.7) scale(1 -1)" gradientUnits="userSpaceOnUse">
      <stop offset="0" stop-color="#5354e4"/>
      <stop offset=".8" stop-color="#0abef2"/>
    </linearGradient>
    <linearGradient id="linear-gradient16" x1="1126.7" y1="-268.9" x2="1579.2" y2="256.8" gradientTransform="translate(0 854.7) scale(1 -1)" gradientUnits="userSpaceOnUse">
      <stop offset="0" stop-color="#5354e4"/>
      <stop offset=".8" stop-color="#0abef2"/>
    </linearGradient>
    <linearGradient id="linear-gradient17" x1="1160.7" y1="-298.2" x2="1613.2" y2="227.5" gradientTransform="translate(0 854.7) scale(1 -1)" gradientUnits="userSpaceOnUse">
      <stop offset="0" stop-color="#5354e4"/>
      <stop offset=".8" stop-color="#0abef2"/>
    </linearGradient>
    <linearGradient id="linear-gradient18" x1="1192.9" y1="-325.9" x2="1645.4" y2="199.9" gradientTransform="translate(0 854.7) scale(1 -1)" gradientUnits="userSpaceOnUse">
      <stop offset="0" stop-color="#5354e4"/>
      <stop offset=".8" stop-color="#0abef2"/>
    </linearGradient>
  </defs>
  <g>
    <path class="st21" d="M643.4,524.7c-.6,3-1.4,5.7-2.9,10.7-3.4,11.4-6.9,20.4-9.5,26.6-7.3,20.1-19.7,45.2-41.7,68.2-4.4,4.6-8.9,8.8-13.3,12.6.9,5.1-5.1,9.8-10.4,9.8h-54.8c-5.1,0-10.6-4.5-10.2-9.3-15.3-9.9-24.6-28.2-30.4-46-2.3-7-.9-11.3,2.3-13.1,3.1-1.7,8-1.1,13.3,1.8,15.5,8.4,34.4,10.3,51.2,5,16.8-5.3,31.3-17.5,39.3-33.3,4.1-8.2,6.3-18.5,1.4-26.2-3.6-5.6-10.1-8.5-16.5-10.4-33.9-10.3-70.6-.9-105.9-5.2-13.7-1.7-27.9-5.9-37-16.3-7.4-8.5-10.5-19.9-12.2-31-2.6-16.5-2.5-34.2.1-51.7-7.3.4-13.3-4.6-13.3-12s4.9-12.4,11.7-12.4,4.4.8,6.4,2c4,2.2,8.3,5.5,16.5,5.5,16.4,0,29.7-13.3,29.7-29.7s-7.2-22.5-17.5-27.1c-1.1-.4-2.7-.8-4.4-1.4-1.1-.4-2.3-.8-3.5-1.4-5.7-3.5-9.4-9.7-9.4-16.8,0-10.9,8.9-19.8,19.8-19.8s13.9,4.1,17.3,10.2c.2.3.4.6.6.9,6.5,10.1,14.4,16.7,27.5,16.7s30.8-13.8,30.8-30.8-.6-6-.6-9v-.2c0-6.7,5.6-11.7,12.3-11.7s12.7,5.7,12.2,12.7c26.8,4.1,51.8,16.9,73.4,33.3,8.5,6.5,17.1,14.3,19.5,24.7,1.8,7.4,1.7,19.7-2.7,26.2-9.9,14.5-31.2-4.8-41.8-9.2-14.9-6-30.4-10.4-46.7-10.5-29.7-.3-60.2,11.5-78.7,34.8-5.7,7.3-10.3,15.8-11.4,24.9-1.1,9.2,1.7,19.2,8.7,25.2,11.2,9.8,28.1,7,42.9,5.3,31.8-3.8,64.4,0,94.5,11,15.7,5.7,31.6,14.3,39.5,29,6.1,11.3,6.5,24.7,3.8,37.4h0Z"/>
    <path class="st10" d="M399.9,152.3c3.9,0,7,3.1,7,7s-3.2,7-7,7-7-3.2-7-7,3.1-7,7-7h0ZM379.3,227.2c2.9,0,5.3,2.4,5.3,5.4s-2.4,5.4-5.3,5.4-5.4-2.4-5.4-5.4,2.4-5.4,5.4-5.4h0ZM323.2,223.4c4.3,0,7.9,3.5,7.9,7.8s-3.5,7.8-7.9,7.8-7.8-3.5-7.8-7.8,3.5-7.8,7.8-7.8h0ZM425.6,350.2c-10.8,0-19.5,8.8-19.5,19.5s8.7,19.5,19.5,19.5,19.5-8.8,19.5-19.5-8.7-19.5-19.5-19.5h0ZM487.5,277.8c-12,0-21.7,9.7-21.7,21.7s9.7,21.7,21.7,21.7,21.7-9.7,21.7-21.7-9.7-21.7-21.7-21.7h0ZM511.3,195c3,0,5.3,2.4,5.3,5.4s-2.4,5.4-5.4,5.4-5.4-2.4-5.4-5.4,2.4-5.4,5.4-5.4h0ZM430,210.3c4.9,0,8.8,4,8.8,8.9s-4,8.8-8.8,8.8-8.9-4-8.9-8.8,4-8.9,8.9-8.9h0ZM349.8,256.1c5.8,0,10.5,4.7,10.5,10.5s-4.7,10.5-10.5,10.5-10.5-4.7-10.5-10.5,4.7-10.5,10.5-10.5h0ZM382,184.5c6,0,10.9,4.9,10.9,10.9s-4.9,10.9-10.9,10.9-10.9-4.9-10.9-10.9,4.9-10.9,10.9-10.9h0ZM472.2,181.6c4.7,0,8.6,3.8,8.6,8.6s-3.8,8.6-8.6,8.6-8.6-3.8-8.6-8.6,3.8-8.6,8.6-8.6h0ZM445.3,240.6c6.8,0,12.3,5.5,12.3,12.3s-5.5,12.3-12.3,12.3-12.3-5.5-12.3-12.3,5.5-12.3,12.3-12.3h0ZM507,229.6c7.5,0,13.6,6.1,13.6,13.6s-6.1,13.6-13.6,13.6-13.6-6.1-13.6-13.6,6.1-13.6,13.6-13.6h0ZM325.5,296.5c5.6,0,10.1,4.5,10.1,10.2s-4.5,10.2-10.1,10.2-10.2-4.5-10.2-10.2,4.5-10.2,10.2-10.2h0ZM390.3,274.5c-9.2,0-16.6,7.4-16.6,16.6s7.4,16.6,16.6,16.6,16.6-7.4,16.6-16.6-7.4-16.6-16.6-16.6h0ZM365.8,339.5c7.5,0,13.6,6.1,13.6,13.6s-6.1,13.6-13.6,13.6-13.6-6.1-13.6-13.6,6.1-13.6,13.6-13.6Z"/>
    <g>
      <g>
        <path class="st11" d="M511,660h54.4c3.4,0,6.2,2.8,6.2,6.2h0c0,3.4-2.8,6.2-6.2,6.2h-54.4c-3.4,0-6.2-2.8-6.2-6.2h0c0-3.4,2.8-6.2,6.2-6.2Z"/>
        <path class="st16" d="M516,676.5h44.3c3,0,5.4,2.4,5.4,5.4h0c0,3-2.4,5.4-5.4,5.4h-44.3c-3,0-5.4-2.4-5.4-5.4h0c0-3,2.4-5.4,5.4-5.4h0Z"/>
      </g>
      <path class="st11" d="M510.3,693.6c-2.9,0-5.1,2.6-4.5,5.5,2.9,15.3,16.3,26.9,32.4,26.9s29.6-11.6,32.4-26.9c.5-2.8-1.7-5.5-4.5-5.5h-55.8,0Z"/>
    </g>
  </g>
  <g>
    <path class="st1" d="M734.4,371.6c-6.5-5.5-14.5-8.3-24.8-8.3s-18.6,2.9-25,8.8c-6.3,5.9-9.5,13.1-9.5,21.8s3.2,15.9,9.5,21.8c6.3,5.9,14.7,8.8,25,8.8h0c10.3,0,18.6-3,25-9s9.5-13.5,9.5-22.7-3.2-15.8-9.7-21.3Z"/>
    <rect class="st1" x="682.2" y="450.9" width="54.8" height="189.1"/>
    <path class="st1" d="M943.2,457c-11.8-6-25.3-9-40.2-9h0c-16.2,0-30.6,3.4-43.2,10.2-7.5,4-13.9,9-19.3,15.1v-22.5h-52.4v189.1h54.8v-93.5c0-12,1.9-21.5,5.8-28.8,3.9-7.3,9.2-12.8,16.2-16.5,6.9-3.7,14.7-5.6,23.4-5.6s21.6,3.6,28.3,10.9,10,18.5,10,33.7v99.8h54.8v-108.3c0-19.2-3.4-35-10.2-47.3-6.8-12.3-16.1-21.5-27.9-27.4Z"/>
    <polygon class="st1" points="1236.6 579.8 1191.5 450.9 1144.8 450.9 1098.5 578.5 1054.1 450.9 1002.4 450.9 1070.6 640 1123.7 640 1167 522.1 1209.8 640 1262.5 640 1331.1 450.9 1282.6 450.9 1236.6 579.8"/>
    <path class="st1" d="M1493.8,468.5c-15.9-13.6-38.3-20.4-67.1-20.4s-29.8,1.9-44.3,5.8-26.9,9.5-37.3,17l19.3,38.3c7-5.4,15.4-9.7,25.1-12.8,9.7-3.2,19.6-4.8,29.7-4.8,14.8,0,25.7,3.3,32.9,9.8,7.1,6.6,10.7,15.7,10.7,27.4v.4h-43.2c-19.4,0-35.1,2.4-47.1,7-11.9,4.7-20.7,11.3-26.2,19.9-5.5,8.6-8.3,18.6-8.3,29.3s2.9,20.5,8.6,29.2c5.7,8.7,13.9,15.5,24.4,20.6,10.5,5,23.1,7.6,37.6,7.6h0c16.6,0,30.2-3.2,40.8-9.6,7.1-4.4,12.7-9.9,16.9-16.7v23.5h0s51.3,0,51.3,0v-107.9c0-28.8-8-50-23.9-63.6ZM1447.2,599.6c-7.4,4.2-15.8,6.3-25.1,6.3s-16.8-2.1-22.3-6.2c-5.5-4.1-8.3-9.7-8.3-16.7s2.4-11.6,7.2-15.8c4.8-4.2,13.6-6.3,26.5-6.3h37.6v19.4h0c-3.1,8.6-8.3,15.1-15.6,19.3Z"/>
    <path class="st1" d="M1639.3,458.4c-8,4.4-14.5,10.2-19.7,17.3v-24.8h-52.4v189.1h0s54.8,0,54.8,0v-89.3c0-18,4.6-31.4,13.7-40.1,9.1-8.7,21.4-13,36.9-13s3.8.1,5.8.3,4,.6,6.1,1v-51c-17.8,0-32.9,3.5-45.3,10.4Z"/>
  </g>
  <g>
    <path class="st0" d="M678.2,701v-9.9h24.7v9.9h-24.7ZM682.7,722v-31.1c0-4.2,1.3-7.6,3.8-10.1,2.5-2.5,6.1-3.8,10.8-3.8s2.9.1,4.3.4,2.7.7,3.7,1.2l-3.2,9.4c-.4-.2-.9-.4-1.4-.5-.5-.2-1.1-.2-1.6-.2-1,0-1.7.3-2.3.9s-.9,1.5-.9,2.9v1.5l.4,5.6v23.8h-13.5Z"/>
    <path class="st15" d="M741.5,722.6c-3.7,0-7-.7-9.8-2.2-2.8-1.5-5.1-3.5-6.7-6-1.6-2.5-2.5-5.5-2.5-8.8s.8-6.2,2.5-8.8,3.9-4.5,6.7-6c2.8-1.4,6.1-2.2,9.8-2.2s7,.7,9.9,2.2,5.1,3.4,6.7,6,2.4,5.5,2.4,8.8-.8,6.2-2.4,8.8-3.8,4.5-6.7,6-6.2,2.2-9.9,2.2ZM741.5,712.1c1,0,1.9-.2,2.7-.7s1.4-1.2,1.9-2.2.7-2.2.7-3.6-.2-2.6-.7-3.6-1.1-1.6-1.9-2.1c-.8-.5-1.7-.7-2.7-.7s-1.9.2-2.7.7-1.4,1.2-1.9,2.1c-.5.9-.7,2.1-.7,3.6s.2,2.6.7,3.6,1.1,1.7,1.9,2.2c.8.5,1.7.7,2.7.7Z"/>
    <path class="st12" d="M782.7,722v-32.7h12.8v9.9l-2.1-2.8c1-2.5,2.6-4.5,4.8-5.7,2.2-1.3,4.8-1.9,7.9-1.9v12c-.6,0-1.1-.1-1.6-.2-.5,0-.9,0-1.4,0-2,0-3.7.5-5,1.6-1.3,1.1-1.9,2.9-1.9,5.5v14.5h-13.5Z"/>
    <path class="st14" d="M876.5,722.6c-2.8,0-5.5-.3-8.2-.9-2.7-.6-4.9-1.4-6.6-2.3l3.7-8.9c1.5.9,3.4,1.6,5.4,2.2s4,.8,6,.8,2.7-.1,3.3-.4c.6-.3.9-.7.9-1.1s-.3-.8-1-1-1.6-.4-2.7-.5-2.3-.3-3.7-.5c-1.3-.2-2.7-.5-4-.8-1.4-.4-2.6-.9-3.7-1.6-1.1-.7-2-1.7-2.7-2.9-.7-1.2-1-2.8-1-4.6s.6-3.9,1.9-5.6c1.2-1.7,3.1-3,5.6-4,2.5-1,5.6-1.5,9.2-1.5s4.8.2,7.2.7c2.4.4,4.4,1.1,6.2,2l-3.7,8.9c-1.7-.9-3.3-1.5-4.9-1.9s-3.1-.5-4.5-.5-2.9.2-3.5.5-.9.7-.9,1.1.3.8,1,1.1,1.6.4,2.7.5c1.1.1,2.3.3,3.7.5,1.3.2,2.7.5,4,.8s2.6.9,3.7,1.6c1.1.7,2,1.7,2.7,2.9.7,1.2,1,2.8,1,4.6s-.6,3.8-1.8,5.5c-1.2,1.7-3.1,3-5.6,4.1-2.5,1-5.7,1.5-9.4,1.5h0Z"/>
    <path class="st19" d="M958.7,688.8c2.5,0,4.7.5,6.7,1.5s3.5,2.6,4.7,4.8,1.7,4.9,1.7,8.4v18.7h-13.5v-16.3c0-2-.3-3.5-1-4.3-.7-.9-1.5-1.3-2.6-1.3s-1.5.2-2.2.6c-.6.4-1.2,1-1.5,1.9-.4.9-.6,2-.6,3.5v16h-13.5v-16.3c0-2-.3-3.5-1-4.3-.6-.9-1.5-1.3-2.7-1.3s-1.5.2-2.2.6c-.6.4-1.2,1-1.5,1.9-.4.9-.6,2-.6,3.5v16h-13.5v-32.7h12.8v9.4l-2.6-2.6c1.2-2.5,2.9-4.3,5-5.5,2.1-1.2,4.4-1.8,6.9-1.8s5.4.8,7.6,2.2,3.7,3.8,4.5,7.1l-4.1-.7c1.2-2.7,2.9-4.8,5.2-6.4,2.3-1.5,5-2.3,8-2.3h0Z"/>
    <path class="st9" d="M1006.1,722.6c-2.7,0-4.9-.5-6.7-1.4-1.8-.9-3.2-2.1-4.1-3.7-.9-1.5-1.4-3.2-1.4-5.1s.5-3.9,1.6-5.4c1.1-1.5,2.7-2.6,4.9-3.3,2.2-.8,5-1.1,8.4-1.1h6.8v6.5h-4.7c-1.4,0-2.5.2-3.1.7-.7.5-1,1.2-1,2.1s.3,1.4.9,1.9c.6.5,1.4.8,2.4.8s1.8-.2,2.5-.8c.8-.5,1.3-1.3,1.7-2.4l1.7,4c-.5,2.4-1.6,4.2-3.3,5.4-1.7,1.2-3.9,1.8-6.8,1.8h0ZM1015.3,722v-5.8l-1-1.5v-11c0-1.6-.5-2.8-1.5-3.7-1-.8-2.6-1.3-4.8-1.3s-3,.2-4.5.7-2.8,1.1-3.9,1.9l-4.3-8.9c1.9-1.2,4.2-2.1,6.9-2.8s5.3-1,7.8-1c5.6,0,10,1.3,13.1,3.8s4.6,6.5,4.6,12v17.6h-12.5Z"/>
    <path class="st5" d="M1051.7,722v-32.7h12.8v9.9l-2.1-2.8c1-2.5,2.6-4.5,4.8-5.7,2.2-1.3,4.8-1.9,7.9-1.9v12c-.6,0-1.1-.1-1.6-.2-.5,0-.9,0-1.4,0-2,0-3.7.5-5,1.6-1.3,1.1-1.9,2.9-1.9,5.5v14.5h-13.5Z"/>
    <path class="st3" d="M1094.8,701v-9.9h24.7v9.9h-24.7ZM1113.5,722.6c-4.5,0-8-1.1-10.5-3.3-2.5-2.2-3.8-5.5-3.8-10v-27.4h13.5v27.3c0,1,.3,1.8.8,2.3s1.2.8,2,.8c1.2,0,2.2-.3,3.1-.9l3.2,9.4c-1,.6-2.3,1-3.7,1.3-1.5.3-3,.4-4.6.4h0Z"/>
    <path class="st2" d="M1191.8,722.6c-2.8,0-5.5-.3-8.2-.9-2.7-.6-4.9-1.4-6.6-2.3l3.7-8.9c1.6.9,3.4,1.6,5.4,2.2s4.1.8,6,.8,2.7-.1,3.3-.4c.6-.3.9-.7.9-1.1s-.3-.8-1-1-1.6-.4-2.7-.5-2.3-.3-3.7-.5c-1.3-.2-2.7-.5-4-.8-1.4-.4-2.6-.9-3.7-1.6-1.1-.7-2-1.7-2.7-2.9-.7-1.2-1-2.8-1-4.6s.6-3.9,1.9-5.6c1.2-1.7,3.1-3,5.6-4,2.5-1,5.6-1.5,9.2-1.5s4.8.2,7.2.7,4.4,1.1,6.2,2l-3.7,8.9c-1.7-.9-3.3-1.5-4.9-1.9-1.6-.3-3.1-.5-4.5-.5s-2.9.2-3.5.5-.9.7-.9,1.1.3.8,1,1.1,1.6.4,2.7.5c1.1.1,2.3.3,3.7.5,1.3.2,2.7.5,4,.8s2.6.9,3.7,1.6c1.1.7,2,1.7,2.7,2.9.7,1.2,1,2.8,1,4.6s-.6,3.8-1.8,5.5c-1.2,1.7-3.1,3-5.6,4.1-2.5,1-5.7,1.5-9.4,1.5h0Z"/>
    <path class="st6" d="M1248,722.6c-3.7,0-7-.7-9.8-2.2s-5.1-3.5-6.7-6-2.4-5.5-2.4-8.8.8-6.2,2.4-8.8,3.9-4.5,6.7-6c2.8-1.4,6.1-2.2,9.8-2.2s7,.7,9.9,2.2,5.1,3.4,6.7,6,2.4,5.5,2.4,8.8-.8,6.2-2.4,8.8-3.8,4.5-6.7,6-6.2,2.2-9.9,2.2ZM1248,712.1c1,0,1.9-.2,2.7-.7.8-.5,1.4-1.2,1.9-2.2s.7-2.2.7-3.6-.2-2.6-.7-3.6-1.1-1.6-1.9-2.1c-.8-.5-1.7-.7-2.7-.7s-1.9.2-2.7.7c-.8.5-1.4,1.2-1.9,2.1-.5.9-.7,2.1-.7,3.6s.2,2.6.7,3.6,1.1,1.7,1.9,2.2c.8.5,1.7.7,2.7.7Z"/>
    <path class="st8" d="M1289.2,722v-44.3h13.5v44.3h-13.5Z"/>
    <path class="st20" d="M1340.2,722.6c-2.6,0-4.9-.5-7-1.6-2.1-1.1-3.7-2.7-4.9-5-1.2-2.2-1.8-5.2-1.8-8.7v-18h13.5v15.7c0,2.3.4,3.9,1.1,4.8.8.9,1.8,1.4,3.1,1.4s1.5-.2,2.2-.6,1.3-1.1,1.7-2.1c.4-1,.7-2.3.7-3.9v-15.4h13.5v32.7h-12.8v-9.4l2.6,2.6c-1.2,2.5-2.8,4.4-4.9,5.7-2.1,1.2-4.4,1.8-6.9,1.8h0Z"/>
    <path class="st13" d="M1383.3,701v-9.9h24.7v9.9h-24.7ZM1402,722.6c-4.5,0-8-1.1-10.5-3.3-2.5-2.2-3.8-5.5-3.8-10v-27.4h13.5v27.3c0,1,.3,1.8.8,2.3s1.2.8,2,.8c1.2,0,2.2-.3,3.1-.9l3.2,9.4c-1,.6-2.3,1-3.7,1.3-1.5.3-3,.4-4.6.4h0Z"/>
    <path class="st17" d="M1438.4,686.7c-2.5,0-4.4-.7-5.9-2-1.5-1.3-2.2-3-2.2-4.9s.7-3.6,2.2-4.9,3.4-2,5.9-2,4.4.6,5.9,1.8c1.5,1.2,2.2,2.8,2.2,4.8s-.7,3.8-2.2,5.1c-1.5,1.3-3.4,2-5.9,2ZM1431.7,722v-32.7h13.5v32.7h-13.5Z"/>
    <path class="st7" d="M1486.4,722.6c-3.7,0-7-.7-9.8-2.2s-5.1-3.5-6.7-6-2.4-5.5-2.4-8.8.8-6.2,2.4-8.8,3.9-4.5,6.7-6c2.8-1.4,6.1-2.2,9.8-2.2s7,.7,9.9,2.2,5.1,3.4,6.7,6,2.4,5.5,2.4,8.8-.8,6.2-2.4,8.8-3.8,4.5-6.7,6-6.2,2.2-9.9,2.2ZM1486.4,712.1c1,0,1.9-.2,2.7-.7.8-.5,1.4-1.2,1.9-2.2s.7-2.2.7-3.6-.2-2.6-.7-3.6-1.1-1.6-1.9-2.1c-.8-.5-1.7-.7-2.7-.7s-1.9.2-2.7.7c-.8.5-1.4,1.2-1.9,2.1-.5.9-.7,2.1-.7,3.6s.2,2.6.7,3.6,1.1,1.7,1.9,2.2c.8.5,1.7.7,2.7.7Z"/>
    <path class="st18" d="M1550.3,688.8c2.5,0,4.8.5,6.8,1.5s3.6,2.6,4.8,4.8,1.8,4.9,1.8,8.4v18.7h-13.5v-16.3c0-2-.4-3.5-1.1-4.3-.7-.9-1.7-1.3-2.9-1.3s-1.8.2-2.5.6-1.4,1.1-1.8,2.1c-.5,1-.7,2.2-.7,3.9v15.4h-13.5v-32.7h12.8v9.6l-2.6-2.8c1.3-2.5,3-4.3,5.2-5.6,2.2-1.2,4.6-1.8,7.3-1.8h0Z"/>
    <path class="st4" d="M1600.2,722.6c-2.8,0-5.5-.3-8.2-.9-2.7-.6-4.9-1.4-6.6-2.3l3.7-8.9c1.6.9,3.4,1.6,5.4,2.2s4.1.8,6,.8,2.7-.1,3.3-.4c.6-.3.9-.7.9-1.1s-.3-.8-1-1-1.6-.4-2.7-.5-2.3-.3-3.7-.5c-1.3-.2-2.7-.5-4-.8-1.4-.4-2.6-.9-3.7-1.6-1.1-.7-2-1.7-2.7-2.9-.7-1.2-1-2.8-1-4.6s.6-3.9,1.9-5.6c1.2-1.7,3.1-3,5.6-4,2.5-1,5.6-1.5,9.2-1.5s4.8.2,7.2.7,4.4,1.1,6.2,2l-3.7,8.9c-1.7-.9-3.3-1.5-4.9-1.9-1.6-.3-3.1-.5-4.5-.5s-2.9.2-3.5.5-.9.7-.9,1.1.3.8,1,1.1,1.6.4,2.7.5c1.1.1,2.3.3,3.7.5,1.3.2,2.7.5,4,.8s2.6.9,3.7,1.6c1.1.7,2,1.7,2.7,2.9.7,1.2,1,2.8,1,4.6s-.6,3.8-1.8,5.5c-1.2,1.7-3.1,3-5.6,4.1-2.5,1-5.7,1.5-9.4,1.5h0Z"/>
  </g>
  <g>
    <path class="st1" d="M1088.8,300.1h0c7.1,24.6,26.3,43.8,50.9,50.9h0c-24.6,7-43.8,26.3-50.9,50.9h0c-7.1-24.6-26.3-43.8-50.9-50.9h0c24.6-7,43.8-26.3,50.9-50.9h0Z"/>
    <path class="st1" d="M1229,199.4h0c3.3,11.6,12.4,20.7,24,24h0c-11.6,3.3-20.7,12.4-24,24h0c-3.3-11.6-12.4-20.7-24-24h0c11.6-3.3,20.7-12.4,24-24h0Z"/>
  </g>
</svg>